<svg width="1200" height="1200" viewBox="0 0 1200 1200" fill="none" xmlns="http://www.w3.org/2000/svg">
  <circle cx="600" cy="600" r="480" stroke="white" stroke-width="6" fill="none" />
  <g transform="translate(193, 389.5)">
    <path d="M630.734 223.21C635.244 222.64 643.034 223.049 647.789 223.054L678.604 223.099L713.554 223.059C740.954 222.984 762.349 221.895 785.089 240.64C801.069 253.605 811.054 272.534 812.739 293.039C813.649 303.084 813.059 314.39 813.249 324.405C813.759 351.1 813.994 373.545 795.394 395.01C781.959 410.515 764.309 418.295 744.084 420.025C719.444 420.575 694.299 420.329 669.609 420.169C639.324 419.284 609.694 425.17 584.379 404.015C556.984 381.115 558.234 354.944 558.434 322.624C558.599 295.684 556.479 272.28 575.499 249.84C590.404 232.255 608.289 225.185 630.734 223.21ZM730.534 375.034C739.534 374.279 746.829 371.369 752.754 364.289C756.154 360.159 758.524 355.284 759.674 350.059C762.389 338.019 760.654 310.509 760.534 297.314C760.374 279.404 743.804 267.889 726.154 268.534C698.284 269.554 668.029 267.005 640.039 268.705C620.844 270.21 610.494 283.45 611.084 302.15C611.574 317.7 609.414 336.239 612.729 351.229C619.024 379.724 649.584 375.305 670.929 375.33C690.799 375.5 710.669 375.404 730.534 375.034Z" fill="#FFFFFF"/>
    <path d="M323.448 223.224C355.282 222.404 389.82 223.09 421.864 223.075L457.809 223.049C475.639 223.024 491.689 222.625 508.459 230.825C550.229 251.255 555.859 320.564 519.829 348.794C513.699 353.599 508.274 356.03 500.779 358.32C508.699 371.085 516.544 383.9 524.309 396.76C528.519 403.745 533.999 413.489 538.619 419.974C533.334 420.139 527.649 420.065 522.334 420.09C507.364 420.155 492.399 420.13 477.429 420.02C473.019 413.225 467.299 402.639 463.069 395.364C457.909 386.489 449.484 373.015 445.249 363.955L377.197 363.984L377.243 420.085L323.396 420.005C324.108 354.85 323.465 288.479 323.448 223.224ZM377.176 317.15L437.859 317.114C443.749 317.124 449.689 317.139 455.574 317.129C466.854 317.114 475.019 317.809 484.454 310.569C489.504 305.134 492.229 300.079 491.939 292.309C491.669 285.754 488.794 279.584 483.954 275.164C473.879 266.004 451.589 268.465 438.254 268.465L377.282 268.509L377.176 317.15Z" fill="#FFFFFF"/>
    <path d="M679.099 0.182535C693.629 0.143535 711.289 0.637514 725.444 0.199014C725.429 21.302 726.179 47.6105 725.364 68.3395C725.944 111.036 725.404 154.655 725.479 197.446C708.824 197.245 692.479 197.545 675.904 197.523C676.979 156.11 675.399 112.97 675.999 71.379C668.564 82.186 601.014 167.036 598.084 168.286C593.679 164.473 580.989 147.493 576.479 141.682L538.254 92.777C532.794 85.8565 525.104 75.4425 519.409 69.1295C519.359 72.657 519.444 77.8155 519.169 81.2125L519.199 197.189C517.514 197.746 515.699 197.494 513.899 197.401C498.444 197.307 482.989 197.332 467.539 197.474L467.609 187.836C467.279 182.392 467.534 173.85 467.529 168.206L467.584 131.636C467.494 123.879 467.494 116.121 467.584 108.363C467.174 101.164 467.514 90.7825 467.514 83.315C467.464 68.599 467.489 53.883 467.584 39.1675C467.224 26.668 467.524 12.7885 467.529 0.185525C486.754 0.317025 507.649 -0.364481 526.624 0.391519C529.439 3.57552 533.234 8.94751 535.959 12.5365L553.454 35.451C567.719 54.017 583.329 73.2675 597.104 92.007C603.139 82.8855 615.829 67.598 622.934 58.4745C638.044 39.235 652.879 19.7835 667.439 0.126535L679.099 0.182535Z" fill="#2563EB"/>
    <path d="M679.099 0.182516C693.629 0.143516 711.289 0.637495 725.444 0.198995C725.429 21.302 726.179 47.6105 725.364 68.3395C723.604 66.652 723.949 10.202 723.749 1.7445C715.099 1.7615 704.199 2.08699 695.734 1.19149C699.624 0.830988 702.959 0.826492 706.874 0.801992C703.064 0.796492 680.474 1.13402 679.099 0.182516Z" fill="#2563EB"/>
    <path d="M105.425 223.099L195.516 223.075C213.99 223.07 233.258 222.069 251.467 224.534C281.309 229.039 302.349 251.909 306.624 281.254C312.953 324.704 294.166 357.664 248.338 363.289C239.727 364.379 224.09 363.974 215.086 363.979L158.731 363.914C158.768 382.234 158.385 401.904 158.808 420.119C141.308 419.814 122.813 419.995 105.296 420.09C106.103 354.945 105.257 288.394 105.425 223.099ZM158.677 317.159L208.93 317.114C222.903 317.114 237.855 319.339 249.556 310.614C259.486 300.309 260.143 285.37 249.252 275.34C246.153 272.48 242.367 270.469 238.261 269.504C231.143 267.879 219.298 268.635 211.731 268.45C194.476 268.025 175.661 269.045 158.582 268.395C159.289 282.005 158.955 303.244 158.677 317.159Z" fill="#FFFFFF"/>
    <path d="M213.386 0.14151C231.259 0.38001 255.845 0.8575 273.403 0L258.13 30.188L202.993 140.409C193.922 158.536 183.8 179.98 174.174 197.545C150.841 197.32 127.506 197.324 104.173 197.557C98.448 187.615 91.9995 174.477 86.586 164.136C74.0515 139.853 61.37 115.647 48.5415 91.518L16.67 31.8245C11.594 22.314 4.1675 9.48001 0 0.118011L63.9685 0.322998L139.962 151.5C148.226 134.87 156.147 117.645 164.21 100.857L192.176 43.608C198.769 30.0905 206.265 13.1785 213.386 0.14151Z" fill="#2563EB"/>
    <path d="M301.611 0.128998L361.862 0.193024C364.929 7.67602 370.182 17.969 373.795 25.415L394.109 67.2835C415.189 110.479 435.869 153.869 456.139 197.45C437.404 197.355 418.669 197.374 399.937 197.506L358.894 113.938C353.276 102.136 347.576 90.3725 341.794 78.65C338.934 72.8015 334.871 63.9905 331.589 58.5955C330.291 62.9305 325.901 71.0435 323.714 75.3615L309.177 104.079L290.452 141.467C288.037 146.272 283.732 155.485 281.162 159.551C277.989 166.628 273.701 174.507 270.259 181.558C268.268 185.636 264.235 194.068 261.966 197.574C251.765 197.347 241.562 197.273 231.359 197.351C222.733 197.35 213.331 197.157 204.792 197.801C209.273 190.488 215.68 176.237 219.561 168.236L244.658 116.393C263.171 77.546 282.792 38.89 301.611 0.128998Z" fill="#2563EB"/>
    <path d="M757.424 0.226501C761.699 0.551501 770.049 0.210521 774.664 0.190521L809.854 0.132019C809.524 29.527 809.844 59.3655 809.859 88.8L809.834 197.334C806.859 197.159 803.119 197.29 800.084 197.32C785.704 197.304 771.319 197.363 756.939 197.499C757.549 193.43 757.199 184.546 757.189 180.003L757.199 147.472L757.174 55.0815C757.149 37.535 756.609 17.531 757.424 0.226501Z" fill="#2563EB"/>
  </g>
</svg>
